<svg width="254" height="370" viewBox="0 0 254 370" fill="none" xmlns="http://www.w3.org/2000/svg">
<path d="M185 23H208V46H231V69H254V301H231V324H208V347H185V370H69V347H46V324H23V301H0V69H23V46H46V23H69V0H185V23Z" fill="#FD85FF"/>
<rect x="31" y="104" width="4" height="12" fill="white"/>
<rect x="27" y="108" width="12" height="4" fill="white"/>
<rect x="156" y="51" width="4" height="12" fill="white"/>
<rect x="152" y="55" width="12" height="4" fill="white"/>
<rect x="207" y="144" width="4" height="12" fill="white"/>
<rect x="203" y="148" width="12" height="4" fill="white"/>
<ellipse cx="127" cy="301" rx="50" ry="12" fill="#050000" fill-opacity="0.1"/>
</svg>
